# xmcd CD database file
#
# Track frame offsets:
#	150
#	14037
#	26462
#	39215
#	52925
#	65742
#	75875
#	86827
#	99835
#	114762
#	127125
#	139747
#	152375
#	158812
#	169780
#	193860
#	203720
#	219357
#	234357
#	247127
#
# Disc length: 3591 seconds
#
# Revision: 0
# Processed by: cddbd v1.4PL0 Copyright (c) Steve Scherf et al.
# Submitted via: Feurio! 1.63.1ß - http://www.feurio.com
#
DISCID=fe0e0514
DTITLE=Various Artist - Best of Blues - Bird Of Paradise
DYEAR=1900
DGENRE=blues
TTITLE0=Elmore James - Dust My Broom
TTITLE1=Lee Dorsey - Working In The Coalmine
TTITLE2=Bo Diddley - Pretty Thing
TTITLE3=Slim Harpo - I'm A King Bee
TTITLE4=Muddy Waters - (I'm Your) Hoochie Coochie Man
TTITLE5=John Lee Hooker - Dimples
TTITLE6=Howlin' Wolf - Little Red Rooster
TTITLE7=Sonny Boy Williamson - Too Young To Die
TTITLE8=Willie Dixon - Pain In My Heart
TTITLE9=Jimmy Fred - Bright Lights Big City
TTITLE10=Jimmy Rogers - Walking By Myself
TTITLE11=Albert King - California Blues
TTITLE12=Eric Clapton - Jimmy Page - Choker
TTITLE13=Yardbirds - Boom Boom
TTITLE14=Climax Chicago Blues Band - Louisiana Blues
TTITLE15=John Mayall - I'm Your Witchdoctor
TTITLE16=Paul Butterfield Blues Band - Baby Please Don't Go
TTITLE17=Steamhammer - Juniors Wailing
TTITLE18=Fleetwood Mac - Man OF The World
TTITLE19=Snow White - Bird Of Paradise
EXTD=
EXTT0=
EXTT1=
EXTT2=
EXTT3=
EXTT4=
EXTT5=
EXTT6=
EXTT7=
EXTT8=
EXTT9=
EXTT10=
EXTT11=
EXTT12=
EXTT13=
EXTT14=
EXTT15=
EXTT16=
EXTT17=
EXTT18=
EXTT19=
PLAYORDER=
